<svg id="Capa_1" enable-background="new 0 0 512 512" height="512" viewBox="0 0 512 512" width="512" xmlns="http://www.w3.org/2000/svg"><path d="m451.233 72.442-391.027 10.456c-11.836 1.43-60.206 9.899-60.206 9.899v313.801l17.334-2.746c104.689-16.581 211.442-22.209 317.292-16.731l177.374 1.926v-306.52s-48.622-8.635-60.767-10.085z" fill="#548cb8"/><path d="m451.233 72.442-196.184 5.246v307.405c26.551-.017 53.093.658 79.578 2.029l177.373 1.925v-306.52s-48.622-8.635-60.767-10.085z" fill="#3b699c"/><path d="m453.723 52.469c-61.121-19.858-136.761-20.434-198.675-1.688-29.574-8.959-62.685-13.678-96.131-13.678-.141 0-.284 0-.424 0-35.345.042-70.312 5.356-101.122 15.366l-10.357 3.365v295.258l19.636-6.402c127.017-25.493 188.4 1.011 188.4 1.011s41.328-13.538 99.882-10.985l109.15-39.94v-238.941z" fill="#f3d159"/><g fill="#fda334"><path d="m453.723 52.469c-61.121-19.858-136.761-20.434-198.675-1.688l.001 294.92s41.328-13.538 99.882-10.985l109.15-39.94v-238.941z"/><path d="m105.598 105.195h107.25v29.979h-107.25z"/><path d="m105.598 164.269h107.25v29.979h-107.25z"/><path d="m105.598 221.071h107.25v29.979h-107.25z"/></g><path d="m296.377 105.195h107.25v29.979h-107.25z" fill="#f67f22"/><path d="m296.377 164.269h107.25v29.979h-107.25z" fill="#f67f22"/><path d="m296.377 221.071h107.25v29.979h-107.25z" fill="#f67f22"/><circle cx="416.207" cy="379.103" fill="#fff4f4" r="82.115"/><path d="m416.207 296.988h-.001v164.23h.001c45.351 0 82.115-36.764 82.115-82.115s-36.764-82.115-82.115-82.115z" fill="#e2e1ec"/><path d="m416.206 283.309c-52.821 0-95.794 42.973-95.794 95.794s42.973 95.794 95.794 95.794 95.794-42.973 95.794-95.794-42.973-95.794-95.794-95.794zm64.073 80.805h-22.286c-1.444-15.341-5.028-29.881-10.504-42.903 16.305 8.846 28.458 24.386 32.79 42.903zm-75.703 0c1.692-14.349 5.712-27.747 11.631-38.923 5.919 11.176 9.939 24.574 11.632 38.923zm23.365 29.978c-1.626 14.702-5.685 28.443-11.733 39.862-6.048-11.419-10.108-25.16-11.733-39.862zm-43.015-72.883c-5.476 13.023-9.06 27.563-10.504 42.904h-22.289c4.332-18.517 16.486-34.058 32.793-42.904zm-32.793 72.883h22.203c1.342 15.205 4.782 29.642 10.081 42.615-16.049-8.891-27.998-24.292-32.284-42.615zm95.865 42.614c5.298-12.973 8.739-27.409 10.081-42.614h22.2c-4.286 18.322-16.234 33.722-32.281 42.614z" fill="#bdc4e5"/><path d="m416.206 283.309v41.884c0-.001.001-.002.001-.002 5.919 11.176 9.939 24.574 11.632 38.923h-11.633v29.979h11.735c-1.626 14.702-5.685 28.443-11.733 39.862 0-.001-.001-.002-.001-.003v40.945c52.821 0 95.794-42.973 95.794-95.794-.001-52.821-42.974-95.794-95.795-95.794zm31.792 153.397c5.298-12.973 8.739-27.409 10.081-42.614h22.2c-4.286 18.322-16.234 33.722-32.281 42.614zm9.995-72.592c-1.444-15.341-5.028-29.881-10.504-42.903 16.305 8.846 28.458 24.386 32.79 42.903z" fill="#97a2ed"/></svg>